<svg id="icons" xmlns="http://www.w3.org/2000/svg" viewBox="0 0 160 160"><defs><style>.cls-1{fill:#f9f7d9;}.cls-2,.cls-8{fill:#262d37;}.cls-2{opacity:0.04;}.cls-3{fill:#45859b;}.cls-4{fill:#f4ed5b;}.cls-5,.cls-9{fill:none;}.cls-6{fill:#ea9653;}.cls-7{fill:#59d9a4;}.cls-8{opacity:0.16;}.cls-9{stroke:#262d37;stroke-linecap:round;stroke-linejoin:round;stroke-width:2px;}</style></defs><title>calculator</title><g id="_Group_" data-name="&lt;Group&gt;"><path class="cls-1" d="M80,9a70.995,70.995,0,0,1,43,127.49V42a4,4,0,0,0-4-4H41a4,4,0,0,0-4,4v94.49A70.995,70.995,0,0,1,80,9Z"/><path class="cls-2" d="M38,108H15c-.092,0-.179-.019-.268-.027-.7-1.64-1.335-3.317-1.916-5.018A2.983,2.983,0,0,1,15,102H38a3,3,0,0,1,0,6ZM54,72H50a3,3,0,0,0,0,6h4a3,3,0,0,0,0-6ZM73,38a3,3,0,0,0,0-6H59a3,3,0,0,0,0,6ZM31,95a3,3,0,0,0-3-3H10.03c.346,2.029.764,4.033,1.278,6H28A3,3,0,0,0,31,95Zm17,13h74a3,3,0,0,0,0-6H48a3,3,0,0,0,0,6ZM83,32a3,3,0,0,0,0,6h34a3,3,0,0,0,0-6ZM98,45a3,3,0,0,0,3,3h42.375q-1.563-3.09-3.412-6H101A3,3,0,0,0,98,45ZM65,25a3,3,0,0,0,3,3h48a3,3,0,0,0,0-6H68A3,3,0,0,0,65,25Zm54,50a3,3,0,0,0,3,3h28.949c-.056-2.022-.188-4.024-.41-6H122A3,3,0,0,0,119,75Zm20,20a3,3,0,0,0-3-3H102a3,3,0,0,0,0,6h34A3,3,0,0,0,139,95ZM124,35a3,3,0,0,0,3,3h10.236a71.347,71.347,0,0,0-4.93-6H127A3,3,0,0,0,124,35ZM35,95a3,3,0,0,0,3,3H92a3,3,0,0,0,0-6H38A3,3,0,0,0,35,95Zm5-23H17a3,3,0,0,0,0,6H40a3,3,0,0,0,0-6ZM24,115a3,3,0,0,0-3-3H16.625q1.563,3.09,3.412,6H21A3,3,0,0,0,24,115ZM61,85a3,3,0,0,0-3-3H9.051c.056,2.022.188,4.024.41,6H58A3,3,0,0,0,61,85Zm70-30a3,3,0,0,0-3-3H54a3,3,0,0,0,0,6h74A3,3,0,0,0,131,55ZM98,145a2.991,2.991,0,0,0,2.585,2.958A70.557,70.557,0,0,0,114.592,142H101A3,3,0,0,0,98,145Zm28-63a3,3,0,0,0,0,6h24a3,3,0,0,0,.546-.055c.212-1.9.34-3.832.4-5.778A2.969,2.969,0,0,0,150,82Zm19-17a3,3,0,0,0,3,3h1.97c-.346-2.029-.764-4.033-1.278-6H148A3,3,0,0,0,145,65ZM68,82a3,3,0,0,0,0,6h48a3,3,0,0,0,0-6Zm-4-4h48a3,3,0,0,0,0-6H64a3,3,0,0,0,0,6Zm77-13a3,3,0,0,0-3-3H64a3,3,0,0,0,0,6h74A3,3,0,0,0,141,65Zm-6-10a3,3,0,0,0,3,3h9.508q-1-3.062-2.252-6H138A3,3,0,0,0,135,55ZM54,62H40a3,3,0,0,0,0,6H54a3,3,0,0,0,0-6ZM64,18h48a2.985,2.985,0,0,0,1.68-.514A70.563,70.563,0,0,0,100.437,12H64a3,3,0,0,0,0,6Zm62,10h2.321q-2.415-2.246-5.035-4.261A2.985,2.985,0,0,0,126,28ZM57,15a2.973,2.973,0,0,0-.718-1.927A70.6,70.6,0,0,0,45.408,18H54A3,3,0,0,0,57,15Zm75,87a3,3,0,0,0,0,6h13.256c.791-1.841,1.5-3.727,2.132-5.645A2.966,2.966,0,0,0,146,102ZM44,45a3,3,0,0,0,3,3H91a3,3,0,0,0,0-6H47A3,3,0,0,0,44,45Zm99,50a3,3,0,0,0,3,3h2.692c.514-1.967.932-3.971,1.278-6H146A3,3,0,0,0,143,95ZM40,45a3,3,0,0,0-3-3H20.038q-1.847,2.908-3.412,6H37A3,3,0,0,0,40,45ZM52,35a3,3,0,0,0-3-3H27.694a71.347,71.347,0,0,0-4.93,6H49A3,3,0,0,0,52,35Zm62,90a3,3,0,0,0,3,3h15.306a71.347,71.347,0,0,0,4.93-6H117A3,3,0,0,0,114,125Zm22-10a3,3,0,0,0,3,3h.962q1.847-2.908,3.412-6H139A3,3,0,0,0,136,115ZM91,142H47a2.988,2.988,0,0,0-1.175.24A70.567,70.567,0,0,0,59.563,148H91a3,3,0,0,0,0-6Zm41-27a3,3,0,0,0-3-3H85a3,3,0,0,0,0,6h44A3,3,0,0,0,132,115ZM61,25a3,3,0,0,0-3-3H39.074a71.316,71.316,0,0,0-7.4,6H58A3,3,0,0,0,61,25ZM23,55a3,3,0,0,0-3-3H14.744q-1.26,2.933-2.252,6H20A3,3,0,0,0,23,55Zm29,80a3,3,0,0,0-3-3H31.679a71.316,71.316,0,0,0,7.4,6H49A3,3,0,0,0,52,135Zm0-10a3,3,0,0,0-3-3H22.764a71.347,71.347,0,0,0,4.93,6H49A3,3,0,0,0,52,125ZM33,65a3,3,0,0,0-3-3H11.308c-.514,1.967-.932,3.971-1.278,6H30A3,3,0,0,0,33,65Zm91,70a3,3,0,0,0,.073.643q2.195-1.741,4.248-3.643H127A3,3,0,0,0,124,135ZM30,52a3,3,0,0,0,0,6H44a3,3,0,0,0,0-6Zm77,70H99a3,3,0,0,0,0,6h8a3,3,0,0,0,0-6Zm-79-7a3,3,0,0,0,3,3H75a3,3,0,0,0,0-6H31A3,3,0,0,0,28,115Zm89,17H83a3,3,0,0,0,0,6h34a3,3,0,0,0,0-6Zm-58,0a3,3,0,0,0,0,6H73a3,3,0,0,0,0-6Zm33-7a3,3,0,0,0-3-3H59a3,3,0,0,0,0,6H89A3,3,0,0,0,92,125Z"/><path class="cls-3" d="M117,118v22.61a71.376,71.376,0,0,1-14,6.58V118Z"/><path class="cls-4" d="M97,138v10.94a70.115,70.115,0,0,1-14,2V138Z"/><path class="cls-4" d="M77,138v12.94a70.115,70.115,0,0,1-14-2V138Z"/><path class="cls-4" d="M57,138v9.19a71.374,71.374,0,0,1-14-6.58V138Z"/><rect class="cls-4" x="43" y="118" width="14" height="14"/><rect class="cls-4" x="63" y="118" width="14" height="14"/><rect class="cls-4" x="83" y="118" width="14" height="14"/><rect class="cls-4" x="103" y="98" width="14" height="14"/><rect class="cls-4" x="83" y="98" width="14" height="14"/><rect class="cls-4" x="63" y="98" width="14" height="14"/><rect class="cls-4" x="43" y="98" width="14" height="14"/><rect class="cls-4" x="43" y="78" width="14" height="14"/><rect class="cls-4" x="63" y="78" width="14" height="14"/><rect class="cls-4" x="83" y="78" width="14" height="14"/><rect class="cls-4" x="103" y="78" width="14" height="14"/><rect class="cls-3" x="43" y="44" width="74" height="22"/><rect class="cls-5" x="63" y="118" width="14" height="14"/><rect class="cls-5" x="63" y="78" width="14" height="14"/><rect class="cls-5" x="63" y="98" width="14" height="14"/><rect class="cls-5" x="43" y="78" width="14" height="14"/><rect class="cls-5" x="43" y="44" width="74" height="22"/><rect class="cls-5" x="43" y="118" width="14" height="14"/><rect class="cls-5" x="43" y="98" width="14" height="14"/><rect class="cls-5" x="103" y="78" width="14" height="14"/><rect class="cls-5" x="103" y="98" width="14" height="14"/><rect class="cls-5" x="83" y="118" width="14" height="14"/><rect class="cls-5" x="83" y="98" width="14" height="14"/><rect class="cls-5" x="83" y="78" width="14" height="14"/><path class="cls-6" d="M123,42a4,4,0,0,0-4-4H41a4,4,0,0,0-4,4V72h86Zm-6,24H43V44h74Z"/><path class="cls-7" d="M37,72v64.49a70.748,70.748,0,0,0,6,4.12V138H57v9.19c1.96.67,3.96,1.26,6,1.75V138H77v12.94q1.485.06,3,.06t3-.06V138H97v10.94c2.04-.49,4.04-1.08,6-1.75V118h14v22.61a70.729,70.729,0,0,0,6-4.12V72Zm20,60H43V118H57Zm0-20H43V98H57Zm0-20H43V78H57Zm20,40H63V118H77Zm0-20H63V98H77Zm0-20H63V78H77Zm20,40H83V118H97Zm0-20H83V98H97Zm0-20H83V78H97Zm20,20H103V98h14Zm0-20H103V78h14Z"/><path class="cls-8" d="M117,132.23a63.666,63.666,0,0,1-14,7.51,61.033,61.033,0,0,1-6,1.98,63.923,63.923,0,0,1-14,2.21c-.99.05-1.99.07-3,.07s-2.01-.02-3-.07a63.923,63.923,0,0,1-14-2.21,61.044,61.044,0,0,1-6-1.98c-1.39-.53-2.75-1.11-4.09-1.74A64.041,64.041,0,0,1,37,127.42v9.07a70.16,70.16,0,0,0,20,10.7c1.96.67,3.96,1.26,6,1.75a70.115,70.115,0,0,0,14,2q1.485.06,3,.06t3-.06a70.115,70.115,0,0,0,14-2c2.04-.49,4.04-1.08,6-1.75a70.16,70.16,0,0,0,20-10.7v-9.07A63.165,63.165,0,0,1,117,132.23Z"/><path class="cls-9" d="M67,10.19a71.086,71.086,0,0,1,71.39,29.42"/><path class="cls-9" d="M150.8,85.2A71.019,71.019,0,0,1,103,147.19c-1.96.67-3.96,1.26-6,1.75a70.115,70.115,0,0,1-14,2q-1.485.06-3,.06t-3-.06a70.115,70.115,0,0,1-14-2c-2.04-.49-4.04-1.08-6-1.75a71.3,71.3,0,0,1-34.98-26.21"/><path class="cls-9" d="M10.02,91.99A71.021,71.021,0,0,1,57,12.81"/><path class="cls-9" d="M17.79,114.21a69.084,69.084,0,0,1-5.66-13.34"/><path class="cls-9" d="M142.22,45.78a70.566,70.566,0,0,1,8.61,29.39"/><path class="cls-9" d="M145,80a64.814,64.814,0,0,1-22,48.69V42a4,4,0,0,0-4-4H41a4,4,0,0,0-4,4v86.69A64.983,64.983,0,1,1,145,80Z"/><path class="cls-9" d="M105,38h14a4,4,0,0,1,4,4V56"/><polyline class="cls-9" points="37 95 37 128.69 37 136.49"/><path class="cls-9" d="M37,87V42a4,4,0,0,1,4-4H95"/><polyline class="cls-9" points="123 114 123 128.69 123 136.49"/><polyline class="cls-9" points="123 106 123 72 123 64"/><polyline class="cls-9" points="71 44 117 44 117 66 91 66"/><polyline class="cls-9" points="63 44 43 44 43 66 83 66"/><rect class="cls-9" x="43" y="78" width="14" height="14"/><rect class="cls-9" x="63" y="78" width="14" height="14"/><polyline class="cls-9" points="83 89 83 92 97 92 97 78 83 78 83 81"/><rect class="cls-9" x="103" y="78" width="14" height="14"/><polyline class="cls-9" points="57 109 57 112 43 112 43 98 57 98 57 101"/><rect class="cls-9" x="63" y="98" width="14" height="14"/><polyline class="cls-9" points="83 107.26 83 98 97 98 97 112 86.74 112"/><rect class="cls-9" x="103" y="98" width="14" height="14"/><rect class="cls-9" x="63" y="118" width="14" height="14"/><polyline class="cls-9" points="48 118 57 118 57 132 43 132 43 122"/><rect class="cls-9" x="83" y="118" width="14" height="14"/><polyline class="cls-9" points="43 140.61 43 138 57 138 57 147.19"/><polyline class="cls-9" points="66.74 138 77 138 77 150.94"/><line class="cls-9" x1="63" y1="148.94" x2="63" y2="142.74"/><polyline class="cls-9" points="83 150.94 83 138 97 138 97 148.94"/><polyline class="cls-9" points="103 126 103 118 117 118 117 140.61"/><line class="cls-9" x1="103" y1="147.19" x2="103" y2="134"/><line class="cls-9" x1="123" y1="72" x2="55" y2="72"/><line class="cls-9" x1="47" y1="72" x2="37" y2="72"/></g></svg>